<svg xmlns="http://www.w3.org/2000/svg" viewBox="0 0 15 15"><title>icon-question-mark</title><path d="M12,0H3A3,3,0,0,0,0,3v9a3,3,0,0,0,3,3h9a3,3,0,0,0,3-3V3A3,3,0,0,0,12,0ZM7.79,11.64a1.15,1.15,0,0,1-.86.36,1.16,1.16,0,0,1-.86-.36,1.21,1.21,0,0,1-.35-.86,1.19,1.19,0,0,1,.35-.86,1.16,1.16,0,0,1,.86-.36,1.15,1.15,0,0,1,.86.36,1.16,1.16,0,0,1,.36.86A1.18,1.18,0,0,1,7.79,11.64ZM10,6.73a3,3,0,0,1-.58.67c-.16.11-.39.26-.69.43a3.15,3.15,0,0,0-.49.32A.5.5,0,0,0,8,8.52v.1a.44.44,0,0,1-.43.43H6.3A.38.38,0,0,1,6,8.92a.41.41,0,0,1-.12-.3V8.45a1.72,1.72,0,0,1,.45-1.2,5.18,5.18,0,0,1,1-.65h0A2.8,2.8,0,0,0,8,6.16a.64.64,0,0,0,.23-.47.71.71,0,0,0-.4-.63A1.49,1.49,0,0,0,6.16,5a3.64,3.64,0,0,0-.65.63.4.4,0,0,1-.27.17.38.38,0,0,1-.31-.08l-.76-.58a.43.43,0,0,1-.09-.58A4.06,4.06,0,0,1,5.33,3.42,3.63,3.63,0,0,1,7.11,3,3.33,3.33,0,0,1,9.73,4.32a2.33,2.33,0,0,1,.47,1.39A2.13,2.13,0,0,1,10,6.73Z" /></svg>
