<svg xmlns="http://www.w3.org/2000/svg" viewBox="0 0 15 15"><title>icon-times</title><path d="M12,0H3A3,3,0,0,0,0,3v9a3,3,0,0,0,3,3h9a3,3,0,0,0,3-3V3A3,3,0,0,0,12,0ZM10.82,9.49a.59.59,0,0,1,.18.44.64.64,0,0,1-.18.45l-.44.44a.64.64,0,0,1-.45.18.59.59,0,0,1-.44-.18l-2-2-2,2a.59.59,0,0,1-.44.18.64.64,0,0,1-.45-.18l-.44-.44A.64.64,0,0,1,4,9.93a.59.59,0,0,1,.18-.44l2-2-2-2A.59.59,0,0,1,4,5.07a.64.64,0,0,1,.18-.45l.44-.44A.64.64,0,0,1,5.07,4a.59.59,0,0,1,.44.18l2,2,2-2A.59.59,0,0,1,9.93,4a.64.64,0,0,1,.45.18l.44.44a.64.64,0,0,1,.18.45.59.59,0,0,1-.18.44l-2,2Z" /></svg>
